{
  "asset": {
    "version": "2.0",
    "generator": "THREE.GLTFExporter r176"
  },
  "scenes": [
    {
      "name": "AuxScene",
      "nodes": [
        6
      ]
    }
  ],
  "scene": 0,
  "nodes": [
    {
      "translation": [
        -247.5,
        -106.25,
        -2.5
      ],
      "mesh": 0
    },
    {
      "children": [
        0
      ]
    },
    {
      "rotation": [
        0,
        0.3826834323650898,
        0,
        0.9238795325112867
      ],
      "scale": [
        0.16835016835016836,
        -0.16835016835016836,
        0.16835016835016836
      ],
      "children": [
        1
      ]
    },
    {
      "children": [
        2
      ]
    },
    {
      "translation": [
        -72.31911726498384,
        113.65303013862584,
        72.31911726853156
      ],
      "children": [
        3
      ]
    },
    {
      "children": [
        4
      ]
    },
    {
      "children": [
        5
      ]
    }
  ],
  "bufferViews": [
    {
      "buffer": 0,
      "byteOffset": 0,
      "byteLength": 139536,
      "target": 34962,
      "byteStride": 12
    },
    {
      "buffer": 0,
      "byteOffset": 139536,
      "byteLength": 93024,
      "target": 34962,
      "byteStride": 8
    },
    {
      "buffer": 0,
      "byteOffset": 232560,
      "byteLength": 139536,
      "target": 34962,
      "byteStride": 12
    }
  ],
  "buffers": [
    {
      "byteLength": 372096,
      "uri": "data:application/octet-stream;base64,"
    }
  ],
  "accessors": [
    {
      "bufferView": 0,
      "componentType": 5126,
      "count": 11628,
      "max": [
        1103.1767578125,
        888.197998046875,
        6
      ],
      "min": [
        606.8765869140625,
        674.5,
        -1
      ],
      "type": "VEC3"
    },
    {
      "bufferView": 1,
      "componentType": 5126,
      "count": 11628,
      "max": [
        1103.1767578125,
        887.5
      ],
      "min": [
        606.8765869140625,
        -5
      ],
      "type": "VEC2"
    },
    {
      "bufferView": 2,
      "componentType": 5126,
      "count": 11628,
      "max": [
        1,
        1,
        1
      ],
      "min": [
        -1,
        -1,
        -1
      ],
      "type": "VEC3"
    }
  ],
  "materials": [
    {
      "pbrMetallicRoughness": {
        "baseColorFactor": [
          0.9046611743890203,
          0.6307571363387763,
          0.04970656597728775,
          1
        ],
        "metallicFactor": 0.9,
        "roughnessFactor": 0.2
      },
      "doubleSided": true,
      "extras": {
        "originalProperties": {
          "color": 16044095,
          "roughness": 0.2,
          "metalness": 0.9,
          "clearcoat": 1,
          "clearcoatRoughness": 0.05,
          "transmission": 0,
          "ior": 2.3333333333333335,
          "opacity": 1,
          "sheen": 0,
          "sheenRoughness": 1
        },
        "isHole": false
      },
      "extensions": {
        "KHR_materials_ior": {
          "ior": 2.3333333333333335
        },
        "KHR_materials_clearcoat": {
          "clearcoatFactor": 1,
          "clearcoatRoughnessFactor": 0.05
        }
      }
    }
  ],
  "meshes": [
    {
      "primitives": [
        {
          "mode": 4,
          "attributes": {
            "POSITION": 0,
            "TEXCOORD_0": 1,
            "NORMAL": 2
          },
          "material": 0
        }
      ]
    }
  ],
  "extensionsUsed": [
    "KHR_materials_ior",
    "KHR_materials_clearcoat"
  ]
}